<?xml version="1.0" encoding="utf-8" ?><svg xmlns="http://www.w3.org/2000/svg" xmlns:xlink="http://www.w3.org/1999/xlink" width="2227" height="2227" viewBox="0 0 2227 2227"><path fill="#0F8" transform="matrix(4.454 0 0 4.454 -0.000488281 0)" d="M249.285 70.8517C251.594 70.4288 263.127 72.5064 265.885 72.9127C280.458 75.06 295.106 77.2274 309.487 80.4335C313.018 81.2208 321.701 82.9937 324.408 84.7645C329.23 87.9193 334.785 92.4182 339.422 96.0245C355.161 108.265 370.827 121.89 383.956 136.937C390.586 144.673 396.797 152.759 402.563 161.159C413.206 176.413 411.111 173.094 406.314 190.895L400.929 210.659C399.714 215.207 398.249 221.642 396.394 225.724C395.531 227.623 391.746 232.776 390.396 234.703L378.977 251.034L343.726 300.924L331.614 317.993C325.853 326.022 320.021 333.639 315.918 342.651C314.529 345.702 312.765 348.884 311.274 351.924C306.507 361.72 301.574 371.433 296.474 381.06C293.882 385.934 291.385 391.8 287.519 395.796C285.795 397.578 283.566 399.304 281.674 400.939L271.694 409.641C268.158 412.728 264.622 415.87 261.061 418.923C258.195 421.38 254.734 425.051 251.073 425.986C247.723 426.101 246.652 425.344 244.119 423.209C236.438 416.732 228.899 410.032 221.305 403.448C217.768 400.381 212.977 396.633 210.207 392.962C207.418 389.264 205.066 383.785 202.877 379.579C198.06 370.296 193.337 360.965 188.709 351.586C186.156 346.394 182.562 337.858 179.407 333.36C156.504 300.819 133.425 268.398 110.665 235.753C103.291 225.176 102.676 223.721 99.4075 211.134C98.2398 206.615 97.0342 202.105 95.7909 197.607L92.0629 184.212C88.9834 173.182 88.5142 174.69 94.7479 165.323C99.0473 158.84 103.597 152.528 108.388 146.4C126.592 123.465 148.69 104.681 172.118 87.1711C173.39 86.2206 176.033 84.2984 177.553 83.8237C186.54 81.3158 196.371 78.8908 205.6 77.4152C219.984 75.1155 234.84 72.5281 249.285 70.8517ZM250.768 122.008C246.043 112.513 245.359 108.731 245.722 98.2307C245.911 92.7536 245.86 85.7116 245.661 80.1831C239.088 81.0972 232.52 82.0499 225.958 83.0411C220.853 83.8378 215.968 84.8734 210.778 85.3169C215.907 90.532 221.119 95.6657 226.41 100.716C228.455 102.685 230.521 104.912 232.633 106.74C228.959 106.456 224.671 106.876 221.134 105.932C217.18 104.875 204.508 91.1063 200.489 87.5252C195.784 88.4398 186.117 90.5496 181.611 92.2184C181.167 92.9588 180.583 93.8695 180.226 94.6375L180.531 94.948C185.929 100.411 194.208 105.168 200.15 110.211C203.486 113.042 207.2 115.553 210.047 118.966C213.552 123.056 216.659 128.724 219.402 133.416L227.564 147.292C222.877 146.68 218.247 145.768 213.598 144.927C205.75 143.507 196.451 142.673 191.178 135.845C185.018 127.87 188.585 114.646 186.314 111.351C184.336 108.481 180.763 106.612 178.134 104.376C175.638 114.098 171.727 124.288 170.031 134.215C169.572 136.906 172.561 140.306 174.485 141.951C180.969 146.978 187.926 151.519 194.674 156.192C202.371 161.457 210.29 167.22 218.106 172.233C219.492 173.205 220.997 174.213 222.282 175.296C228.193 172.455 234.719 169.914 240.788 167.389C243.288 166.348 247.598 164.413 250.088 163.807C253.878 164.929 258.43 166.935 262.149 168.472C267.51 170.669 272.857 172.9 278.19 175.165C288.465 167.871 298.807 160.673 309.215 153.572C312.971 150.996 316.698 148.377 320.394 145.715C325.243 142.244 328.333 140.437 330.512 134.535C328.15 124.565 324.746 114.346 321.94 104.515C318.383 107.818 312.899 110.116 313.001 114.629C313.173 122.2 313.431 132.119 307.339 137.826C298.96 145.676 283.344 144.616 272.974 147.235C275.129 142.791 277.911 138.201 280.462 133.971C284.645 127.035 287.969 120.501 294.066 114.963C298.967 110.513 304.682 107.003 309.751 102.801C312.201 100.77 319.559 96.3715 319.581 93.5826C317.87 90.7413 303.29 87.9107 299.64 87.6151C296.245 91.0102 283.214 104.658 279.664 105.835C276.618 106.845 272.182 106.503 268.939 106.524C268.69 106.527 268.441 106.525 268.193 106.518C272.645 101.142 279.197 95.353 284.261 90.4499C285.456 89.2926 288.426 86.2982 289.603 85.4781C287.837 85.3039 286.208 84.9228 284.463 84.6021C275.721 82.9958 266.881 81.9418 258.109 80.4923C257.099 80.3253 255.417 80.0988 254.453 80.1196C254.132 81.355 254.392 87.1013 254.389 88.7705C254.377 95.1885 254.553 102.266 254.254 108.633C254.098 111.958 251.583 118.023 250.768 122.008ZM99.0749 176.105L107.562 206.955C108.67 210.915 110.229 217.612 111.817 221.088C113.462 224.691 117.801 230.376 120.28 233.861L130.711 248.774L168.329 302.088C174.444 310.674 180.661 319.24 186.71 327.877C188.887 330.985 190.958 335.785 192.669 339.235C196.022 345.95 199.416 352.645 202.851 359.318C204.1 361.698 205.773 365.177 207.108 367.344C206.433 363.271 206.18 358.857 205.7 354.708L203.05 332.909C202.115 324.679 200.788 312.808 199.088 304.783C196.463 302.039 192.868 299.618 189.794 297.333C184.975 293.717 180.132 290.135 175.263 286.587C173.159 285.042 169.29 282.442 167.692 280.462C166.532 279.023 164.47 269.028 165.277 268.065C165.936 268.254 183.979 281.645 185.863 283.218C188.697 285.224 193.609 288.755 196.04 291.087L195.934 290.712C194.362 285.007 195.505 276.752 190.497 273.061C186.68 270.248 182.779 267.503 178.961 264.673C170.546 258.36 162.093 252.097 153.603 245.884C141.24 236.905 142.428 239.578 139.773 224.617C143.577 226.947 148.863 231.087 152.559 233.859L171.38 247.913C176.945 252.07 182.648 256.038 188.183 260.236C189.125 260.95 190.09 261.63 190.964 262.427C189.599 257.523 188.913 251.626 187.81 246.473C183.777 242.627 177.219 238.491 172.627 235.11L144.603 214.269C140.421 211.213 135.531 208.117 131.881 204.529C130.651 203.319 128.609 194.21 129.137 192.568C129.702 192.446 129.695 192.329 130.237 192.718C141.361 200.7 152.624 208.903 163.53 217.176C170.593 222.533 178.789 228.106 185.571 233.536C184.298 228.002 183.242 220.436 182.175 214.681L174.686 174.1C173.449 167.199 172.283 159.631 170.697 152.826C170.339 151.287 161.85 138.792 160.841 138.717C135.55 147.996 119.781 158.85 99.0749 176.105ZM269.638 219.039C270.935 222.916 271.74 225.771 272.547 229.829C275.911 224.733 278.53 219.309 281.235 213.839L289.619 196.709C293.454 188.751 294.392 185.785 299.752 178.656C303.794 173.511 307.476 167.98 311.573 162.94C307.855 165.435 285.199 180.422 284.047 182.078C281.817 185.282 282.123 189.885 280.798 193.48C279.982 195.693 271.059 210.289 269.553 210.551C268.981 209.274 273.358 186.196 273.641 182.778C268.455 180.595 263.251 178.455 258.03 176.358C255.74 175.428 252.595 174.275 250.439 173.251C245.016 174.819 232.572 180.401 226.982 182.863C227.662 188.775 228.427 194.676 229.276 200.565C229.704 203.636 230.461 208.155 230.691 211.151C227.49 207.669 221.782 198.321 219.743 193.808C218.72 191.543 217.852 183.64 216.428 182.184C213.263 178.948 207.16 175.569 203.354 172.799C200.807 170.945 191.673 164.639 189.351 163.695L189.464 163.884C190.605 165.746 192.216 167.677 193.534 169.441C195.653 172.277 197.752 175.57 200.065 178.235C205.106 184.046 207.635 190.352 210.928 197.238C214.262 204.245 217.671 211.217 221.155 218.15C222.798 221.387 225.729 227.295 227.727 229.978C228.123 228.152 229.582 221.599 230.474 220.197L230.902 220.039C232.013 221.104 233.961 233.424 236.975 235.316C239.021 236.601 242.303 236.907 244.66 237.396C244.205 232.191 245.934 222.039 246.187 216.474C246.427 211.189 253.135 209.775 254.141 216.248C254.589 222.686 255.526 231.246 255.614 237.569C258.075 236.946 261.759 236.166 263.921 235.037C265.758 232.065 268.378 222.867 269.638 219.039ZM295.079 289.473C296.18 283.673 297.334 277.883 298.542 272.105C299.125 269.191 299.497 266.03 300.333 263.228C294.656 267.618 253.484 298.631 249.907 299.7C248.072 299.014 242.24 294.423 240.259 292.966C229.367 284.954 218.591 276.71 207.622 268.805C206.546 268.029 200.822 263.796 199.961 263.43C202.304 274.829 204.422 286.273 206.312 297.756C208.421 299.676 211.888 302.093 214.244 303.839C219.289 307.581 224.354 311.297 229.437 314.987L243.171 325.252C244.871 326.525 248.15 329.146 249.803 330.183C252.421 328.751 255.208 326.494 257.631 324.67C261.18 321.985 264.744 319.32 268.323 316.675L282.173 306.576C285.58 304.118 289.208 301.613 292.348 298.828C294.159 297.22 294.842 291.931 295.079 289.473ZM265.405 269.83C259.304 265.804 252.643 261.091 250.186 254.11C246.581 262.344 242.381 264.342 235.17 269.854C235.948 266.043 238.22 260.779 239.621 256.999C240.912 253.519 241.885 249.614 243.129 246.308C225.855 242.924 221.986 237.86 214.19 223.026C210.818 216.52 207.563 209.955 204.427 203.332C202.523 199.234 200.621 194.787 198.416 190.885C195.381 185.513 191.04 180.522 187.335 175.578C186.583 174.574 183.238 169.822 182.499 169.438C184.27 175.3 184.967 181.65 186.07 187.677C187.31 194.451 196.91 248.637 198.184 250.273C200.034 252.65 211.841 260.593 215.005 262.896C226.743 271.443 238.556 279.984 250.079 288.816L283.813 263.877C289.385 259.817 296.411 255.145 301.51 250.729C303.383 249.107 305.493 233.795 306.087 230.674L314.051 187.503C314.94 182.62 316.36 172.76 317.95 168.414C316.349 170.634 314.47 173.371 312.796 175.469C309.774 179.845 305.279 185.136 302.723 189.399C301.149 192.024 298.356 198.289 296.939 201.234C293.821 207.881 290.563 214.461 287.168 220.971C284.329 226.514 281.103 233.491 276.604 237.84C271.865 242.419 263.418 245.472 256.887 246.132C259.195 252.254 261.008 258.666 263.554 264.738C264.205 266.29 264.946 268.217 265.405 269.83ZM286.694 341.003L289.387 321.351C289.766 318.457 290.071 314.859 290.52 312.072C282.13 318.034 273.827 324.119 265.614 330.324C261.433 333.465 257.26 336.986 252.868 339.802C252.102 340.293 250.674 341.264 249.739 341.07C246.779 340.455 222.051 320.935 217.854 317.819C215.388 315.989 212.416 313.263 209.578 312.166C211.01 323.443 212.836 335.161 214.156 346.363C217.238 348.986 220.736 351.44 223.996 353.89L240.3 366.149C243.047 368.216 247.423 371.32 249.827 373.547C261.534 364.254 274.167 355.584 285.816 346.51C286.153 344.681 286.446 342.845 286.694 341.003ZM303.864 118.238C297.549 122.575 293.665 128.405 290.151 135.088L290.335 135.502C298.774 133.903 304.257 132.653 304.286 122.22C304.29 120.939 304.376 119.868 304.204 118.537L303.864 118.238ZM249.929 416.005C256.068 410.57 262.248 405.183 268.47 399.844C271.432 397.288 279.703 390.701 280.862 387.443C281.632 381.712 282.351 375.975 283.019 370.231C283.321 367.643 283.917 361.322 284.6 359.133C276.509 364.878 268.555 371.36 260.518 377.226C258.172 378.938 252.398 383.536 250.042 384.618C247.63 383.56 242.275 379.289 239.925 377.507C233.777 372.799 227.604 368.123 221.408 363.478C220.509 362.817 216.346 359.668 215.552 359.362C216.819 368.652 218.13 379.377 219.633 388.603C219.902 390.25 229.905 398.322 232.043 400.176L249.929 416.005ZM195.772 118.14C195.647 131.225 197.454 133.332 210.375 135.508C207.754 129.613 201.491 121.294 195.772 118.14ZM169.754 100.535C165.835 103.295 162.257 106.24 158.521 109.24C144.046 120.743 130.72 133.622 118.73 147.696C117.512 149.143 114.475 152.23 113.653 153.593L113.849 153.748C123.613 145.96 135.788 139.448 147.207 134.419C150.926 132.781 158.768 130.351 161.733 128.794C162.89 126.437 169.59 103.446 169.889 100.755L169.754 100.535ZM401.082 176.183C397.999 172.904 393.943 170.193 390.411 167.458C377.752 157.656 364.132 148.398 349.242 142.337C346.873 141.373 341.214 138.96 338.854 138.375L338.653 138.79C336.547 143.093 330.676 149.425 329.736 152.41C328.166 157.392 326.999 166.543 325.982 171.976C323.731 183.595 321.56 195.23 319.467 206.878C318.36 213.537 317.168 220.181 315.891 226.809C315.501 228.884 315.148 231.534 314.712 233.484C319.338 230.143 323.706 226.611 328.262 223.203L353.509 204.566C358.229 201.056 366.664 194.328 371.367 191.589C370.984 195.773 370.352 200.345 369.055 204.342C367.396 205.869 364.7 207.683 362.794 209.057C359.753 211.252 356.731 213.474 353.729 215.721C340.396 225.616 325.912 235.851 312.844 245.951C310.912 250.947 310.881 257.5 309.167 262.553C312.067 259.91 317.421 256.089 320.712 253.646L338.83 240.216C345.111 235.587 351.265 230.785 357.527 226.13C358.462 225.436 359.38 224.721 360.357 224.087C359.768 227.668 359.175 234.441 357.282 237.408C355.529 240.159 348.812 244.288 346.035 246.305C341.25 249.78 308.734 273.262 307.496 275.414C305.012 279.731 305.645 285.87 304.251 290.596C307.693 287.897 311.185 285.263 314.725 282.695C318.687 279.547 322.766 276.595 326.839 273.595C329.655 271.522 332.648 269.067 335.579 267.173C332.817 283.008 333.792 280.033 320.797 289.572L307.93 299.196C306.731 300.079 301.97 303.337 301.635 304.374C299.672 310.451 298.933 320.234 298.112 326.579C296.317 340.149 294.655 353.736 293.124 367.338C297.605 359.17 301.542 350.636 305.758 342.326C308.192 337.527 310.291 332.536 313.334 328.076C319.642 319.03 326.114 310.036 332.473 301.028L365.08 254.75C370.348 247.462 375.555 240.13 380.7 232.754C382.874 229.675 386.676 224.798 388.19 221.688C389.586 218.819 391.187 212.517 392.126 209.185C393.762 203.517 395.34 197.832 396.859 192.132C398.123 187.226 399.546 180.942 401.082 176.183ZM329.997 100.362C331.233 105.398 333.106 111.172 334.576 116.219C335.497 119.378 337.2 126.09 338.349 128.928C351.846 133.95 363.314 138.082 375.409 146.201C377.059 147.309 385.926 153.601 386.746 153.838C373.441 136.934 357.025 121.355 340.207 108.041C338.019 106.309 332.289 101.432 329.997 100.362Z"/><path fill="#0F8" transform="matrix(4.454 0 0 4.454 -0.000488281 0)" d="M230.035 153.646C231.567 154.267 235.298 156.08 235.998 157.788C236.595 159.246 235.061 161.418 233.598 161.957C231.177 160.61 228.785 159.212 226.424 157.764C227.419 156.346 228.602 154.589 230.035 153.646Z"/><path fill="#0F8" transform="matrix(4.454 0 0 4.454 -0.000488281 0)" d="M269.396 153.975C271.16 153.759 273.102 156.009 273.117 157.686C272.446 159.383 269.322 160.526 267.49 161.496C265.336 162.348 264.616 159.854 263.654 158.124C265.474 156.316 267.151 155.181 269.396 153.975Z"/><path fill="#0F8" transform="matrix(4.454 0 0 4.454 -0.000488281 0)" d="M126.073 164.906C129.388 166.48 171.312 197.403 172.317 198.886C173.44 200.542 173.08 207.439 172.875 209.568C169.209 207.534 160.449 200.716 156.663 197.94L139.987 185.604C136.837 183.289 130.816 179.472 128.401 176.578C127.418 175.4 125.636 166.209 126.073 164.906Z"/><path fill="#0F8" transform="matrix(4.454 0 0 4.454 -0.000488281 0)" d="M373.594 164.993L374.028 165.252C374.187 166.385 372.844 173.281 372.644 174.818C372.273 177.671 365.895 181.509 363.499 183.3C357.954 187.492 352.362 191.621 346.724 195.686C342.434 198.823 331.827 207.201 327.627 209.528L327.201 209.142C326.769 207.342 327.115 201.507 327.641 199.522C327.83 198.81 328.237 198.369 328.797 197.911C332.445 194.927 336.399 192.156 340.202 189.374L356.126 177.59C361.281 173.85 368.359 168.093 373.594 164.993Z"/></svg>